<svg xmlns="http://www.w3.org/2000/svg" xmlns:xlink="http://www.w3.org/1999/xlink" enable-background="new 0 0 2000 2000" viewBox="0 0 2000 2000"><path fill="#e9eef7" fill-rule="evenodd" d="M1001.8,341.7c189.8,0,168.1,335.2,305.2,437.4c181.4,135.2,493.3,68.3,493.3,300.4    c0,407.4-404.7,555-845.7,555c-441,0-817.3-226-686-632.3C399.9,595.8,560.8,341.7,1001.8,341.7z" clip-rule="evenodd" class="colore9eef7 svgShape"/><defs><path id="a" d="M1001.8,341.7c189.8,0,168.1,335.2,305.2,437.4c181.4,135.2,493.3,68.3,493.3,300.4      c0,407.4-404.7,555-845.7,555c-441,0-817.3-226-686-632.3C399.9,595.8,560.8,341.7,1001.8,341.7z" fill="#000000" class="color000 svgShape"/></defs><clipPath id="b"><use overflow="visible" xlink:href="#a"/></clipPath><g clip-path="url(#b)" fill="#000000" class="color000 svgShape"><rect width="2.6" height="1280.6" x="363.3" y="539.7" fill="#ffffff" fill-rule="evenodd" clip-rule="evenodd" class="colorfff svgShape"/><rect width="1398.8" height="2.6" x="333.3" y="567" fill="#ffffff" fill-rule="evenodd" clip-rule="evenodd" class="colorfff svgShape"/><rect width="2.6" height="1280.6" x="484.7" y="539.7" fill="#ffffff" fill-rule="evenodd" clip-rule="evenodd" class="colorfff svgShape"/><rect width="1398.8" height="2.6" x="333.3" y="678.2" fill="#ffffff" fill-rule="evenodd" clip-rule="evenodd" class="colorfff svgShape"/><rect width="2.6" height="1280.6" x="606.2" y="539.7" fill="#ffffff" fill-rule="evenodd" clip-rule="evenodd" class="colorfff svgShape"/><rect width="1398.8" height="2.6" x="333.3" y="789.4" fill="#ffffff" fill-rule="evenodd" clip-rule="evenodd" class="colorfff svgShape"/><rect width="2.6" height="1280.6" x="727.7" y="539.7" fill="#ffffff" fill-rule="evenodd" clip-rule="evenodd" class="colorfff svgShape"/><rect width="1398.8" height="2.6" x="333.3" y="900.6" fill="#ffffff" fill-rule="evenodd" clip-rule="evenodd" class="colorfff svgShape"/><rect width="2.6" height="1280.6" x="849.2" y="539.7" fill="#ffffff" fill-rule="evenodd" clip-rule="evenodd" class="colorfff svgShape"/><rect width="1398.8" height="2.6" x="333.3" y="1011.9" fill="#ffffff" fill-rule="evenodd" clip-rule="evenodd" class="colorfff svgShape"/><rect width="2.6" height="1280.6" x="970.7" y="539.7" fill="#ffffff" fill-rule="evenodd" clip-rule="evenodd" class="colorfff svgShape"/><rect width="1398.8" height="2.6" x="333.3" y="1123.1" fill="#ffffff" fill-rule="evenodd" clip-rule="evenodd" class="colorfff svgShape"/><rect width="2.6" height="1280.6" x="1092.2" y="539.7" fill="#ffffff" fill-rule="evenodd" clip-rule="evenodd" class="colorfff svgShape"/><rect width="1398.8" height="2.6" x="333.3" y="1234.3" fill="#ffffff" fill-rule="evenodd" clip-rule="evenodd" class="colorfff svgShape"/><rect width="2.6" height="1280.6" x="1213.7" y="539.7" fill="#ffffff" fill-rule="evenodd" clip-rule="evenodd" class="colorfff svgShape"/><rect width="1398.8" height="2.6" x="333.3" y="1345.5" fill="#ffffff" fill-rule="evenodd" clip-rule="evenodd" class="colorfff svgShape"/><rect width="2.6" height="1280.6" x="1335.1" y="539.7" fill="#ffffff" fill-rule="evenodd" clip-rule="evenodd" class="colorfff svgShape"/><rect width="1398.8" height="2.6" x="333.3" y="1456.8" fill="#ffffff" fill-rule="evenodd" clip-rule="evenodd" class="colorfff svgShape"/><rect width="2.6" height="1280.6" x="1456.6" y="539.7" fill="#ffffff" fill-rule="evenodd" clip-rule="evenodd" class="colorfff svgShape"/><rect width="1398.8" height="2.6" x="333.3" y="1568" fill="#ffffff" fill-rule="evenodd" clip-rule="evenodd" class="colorfff svgShape"/><rect width="2.6" height="1280.6" x="1578.1" y="539.7" fill="#ffffff" fill-rule="evenodd" clip-rule="evenodd" class="colorfff svgShape"/><rect width="1398.8" height="2.6" x="333.3" y="1679.2" fill="#ffffff" fill-rule="evenodd" clip-rule="evenodd" class="colorfff svgShape"/><rect width="2.6" height="1280.6" x="1699.6" y="539.7" fill="#ffffff" fill-rule="evenodd" clip-rule="evenodd" class="colorfff svgShape"/><rect width="1398.8" height="2.6" x="333.3" y="1790.4" fill="#ffffff" fill-rule="evenodd" clip-rule="evenodd" class="colorfff svgShape"/></g><path fill="#619fdf" fill-rule="evenodd" d="M406.8 1341.1h11.9v-16.3h7v16.3h11.9c2.4 0 4.4 2 4.4 4.4v107.7c0 2.4-2 4.4-4.4 4.4h-11.9v16.7h-7v-16.7h-11.9c-2.4 0-4.4-2-4.4-4.4v-107.7C402.4 1343 404.3 1341.1 406.8 1341.1zM456 1297.1h11.9v-16.3h7v16.3h11.9c2.4 0 4.4 2 4.4 4.4v86.1c0 2.4-2 4.4-4.4 4.4h-11.9v16.7h-7V1392H456c-2.4 0-4.4-2-4.4-4.4v-86.1C451.6 1299.1 453.6 1297.1 456 1297.1zM505.2 1236.7h11.9v-16.3h7v16.3H536c2.4 0 4.4 2 4.4 4.4v86.1c0 2.4-2 4.4-4.4 4.4h-11.9v16.7h-7v-16.7h-11.9c-2.4 0-4.4-2-4.4-4.4v-86.1C500.8 1238.7 502.8 1236.7 505.2 1236.7zM554.4 1163.1h11.9v-16.3h7v16.3h11.9c2.4 0 4.4 2 4.4 4.4v144.2c0 2.4-2 4.4-4.4 4.4h-11.9v16.7h-7V1316h-11.9c-2.4 0-4.4-2-4.4-4.4v-144.2C550 1165 552 1163.1 554.4 1163.1z" clip-rule="evenodd" class="color619fdf svgShape"/><path fill="#f47a44" fill-rule="evenodd" d="M607.2,1256.7H619v-16.3h7v16.3h11.9c2.4,0,4.4,2,4.4,4.4v86.1c0,2.4-2,4.4-4.4,4.4h-11.9v16.7h-7v-16.7     h-11.9c-2.4,0-4.4-2-4.4-4.4v-86.1C602.8,1258.7,604.7,1256.7,607.2,1256.7z" clip-rule="evenodd" class="colorf47a44 svgShape"/><path fill="#619fdf" fill-rule="evenodd" d="M662.8 1184.7h11.9v-16.3h7v16.3h11.9c2.4 0 4.4 2 4.4 4.4v107.7c0 2.4-2 4.4-4.4 4.4h-11.9v16.7h-7v-16.7h-11.9c-2.4 0-4.4-2-4.4-4.4v-107.7C658.4 1186.7 660.4 1184.7 662.8 1184.7zM712.1 1140.8h11.9v-16.3h7v16.3h11.9c2.4 0 4.4 2 4.4 4.4v86.1c0 2.4-2 4.4-4.4 4.4H731v16.7h-7v-16.7h-11.9c-2.4 0-4.4-2-4.4-4.4v-86.1C707.7 1142.7 709.6 1140.8 712.1 1140.8zM761.3 1080.3h11.9v-16.3h7v16.3H792c2.4 0 4.4 2 4.4 4.4v86.1c0 2.4-2 4.4-4.4 4.4h-11.9v16.7h-7v-16.7h-11.9c-2.4 0-4.4-2-4.4-4.4v-86.1C756.9 1082.3 758.9 1080.3 761.3 1080.3zM810.5 1006.7h11.9v-16.3h7v16.3h11.9c2.4 0 4.4 2 4.4 4.4v144.1c0 2.4-2 4.4-4.4 4.4h-11.9v16.7h-7v-16.7h-11.9c-2.4 0-4.4-2-4.4-4.4v-144.1C806.1 1008.7 808.1 1006.7 810.5 1006.7z" clip-rule="evenodd" class="color619fdf svgShape"/><path fill="#f47a44" fill-rule="evenodd" d="M863.2 1100.3h11.9v-16.3h7v16.3H894c2.4 0 4.4 2 4.4 4.4v86.1c0 2.4-2 4.4-4.4 4.4h-11.9v16.7h-7v-16.7h-11.9c-2.4 0-4.4-2-4.4-4.4v-86.1C858.8 1102.3 860.8 1100.3 863.2 1100.3zM919.7 1127.9h11.9v-16.3h7v16.3h11.9c2.4 0 4.4 2 4.4 4.4v144.1c0 2.4-2 4.4-4.4 4.4h-11.9v16.7h-7v-16.7h-11.9c-2.4 0-4.4-2-4.4-4.4v-144.1C915.3 1129.9 917.2 1127.9 919.7 1127.9zM971.6 1182h11.9v-16.3h7v16.3h11.9c2.4 0 4.4 2 4.4 4.4v144.1c0 2.4-2 4.4-4.4 4.4h-11.9v16.7h-7v-16.7h-11.9c-2.4 0-4.4-2-4.4-4.4v-144.1C967.2 1183.9 969.2 1182 971.6 1182z" clip-rule="evenodd" class="colorf47a44 svgShape"/><path fill="#619fdf" fill-rule="evenodd" d="M1021 1122.3h11.9V1106h7v16.3h11.9c2.4 0 4.4 2 4.4 4.4v107.7c0 2.4-2 4.4-4.4 4.4h-11.9v16.7h-7v-16.7H1021c-2.4 0-4.4-2-4.4-4.4v-107.7C1016.6 1124.3 1018.6 1122.3 1021 1122.3zM1070.2 1078.3h11.9v-16.3h7v16.3h11.9c2.4 0 4.4 2 4.4 4.4v86.1c0 2.4-2 4.4-4.4 4.4h-11.9v16.7h-7v-16.7h-11.9c-2.4 0-4.4-2-4.4-4.4v-86.1C1065.8 1080.3 1067.8 1078.3 1070.2 1078.3zM1119.5 1017.9h11.9v-16.3h7v16.3h11.9c2.4 0 4.4 2 4.4 4.4v86.1c0 2.4-2 4.4-4.4 4.4h-11.9v16.7h-7v-16.7h-11.9c-2.4 0-4.4-2-4.4-4.4v-86.1C1115.1 1019.9 1117 1017.9 1119.5 1017.9z" clip-rule="evenodd" class="color619fdf svgShape"/><path fill="#f47a44" fill-rule="evenodd" d="M1165.3 1041.6h11.9v-16.3h7v16.3h11.9c2.4 0 4.4 2 4.4 4.4v86.1c0 2.4-2 4.4-4.4 4.4h-11.9v16.7h-7v-16.7h-11.9c-2.4 0-4.4-2-4.4-4.4V1046C1160.9 1043.6 1162.9 1041.6 1165.3 1041.6zM1221.8 1069.2h11.9v-16.3h7v16.3h11.9c2.4 0 4.4 2 4.4 4.4v144.1c0 2.4-2 4.4-4.4 4.4h-11.9v16.7h-7v-16.7h-11.9c-2.4 0-4.4-2-4.4-4.4v-144.1C1217.4 1071.2 1219.3 1069.2 1221.8 1069.2z" clip-rule="evenodd" class="colorf47a44 svgShape"/><path fill="#619fdf" fill-rule="evenodd" d="M1274.6 1011.4h11.9v-16.3h7v16.3h11.9c2.4 0 4.4 2 4.4 4.4v107.7c0 2.4-2 4.4-4.4 4.4h-11.9v16.7h-7v-16.7h-11.9c-2.4 0-4.4-2-4.4-4.4v-107.7C1270.2 1013.4 1272.2 1011.4 1274.6 1011.4zM1323.8 967.5h11.9v-16.3h7v16.3h11.9c2.4 0 4.4 2 4.4 4.4v86.1c0 2.4-2 4.4-4.4 4.4h-11.9v16.7h-7v-16.7h-11.9c-2.4 0-4.4-2-4.4-4.4v-86.1C1319.4 969.5 1321.4 967.5 1323.8 967.5zM1373 907h11.9v-16.3h7V907h11.9c2.4 0 4.4 2 4.4 4.4v86.1c0 2.4-2 4.4-4.4 4.4h-11.9v16.7h-7V1002H1373c-2.4 0-4.4-2-4.4-4.4v-86.1C1368.6 909 1370.6 907 1373 907zM1423.6 861h11.9v-16.3h7V861h11.9c2.4 0 4.4 2 4.4 4.4V973c0 2.4-2 4.4-4.4 4.4h-11.9v16.7h-7v-16.7h-11.9c-2.4 0-4.4-2-4.4-4.4V865.4C1419.2 862.9 1421.2 861 1423.6 861z" clip-rule="evenodd" class="color619fdf svgShape"/><path fill="#4f8dcb" fill-rule="evenodd" d="M1100.2,660.9c-6.4-3.1-13.7-3.9-15.4,8.1c-1.8,34.3,42.9,73.7,51.9,78c42.6,40,55.9-37.1,54-95.6l-17-4.2     c0,0-10.2,78.5-19.2,69.5C1146.9,709,1104.7,663.1,1100.2,660.9z" clip-rule="evenodd" class="color4f8dcb svgShape"/><path fill="#284190" fill-rule="evenodd" d="M1103.7 637.5c-17.4 6.3-28.5 6.9-33.4 1.8-5-1.2-8.3-5.6-9.8-13.3-5.2-11.7-.7-30.5 6.5-21.2 6-15.4 30.2-6.5 43.8-15 8.3 5.4 5.1 18.7-.8 23.3C1110.2 628.4 1109.3 636.6 1103.7 637.5zM1060.7 1059.4l-1.7 9.4c0 0 6.5 12.3 13.2 19 6.7 6.7 15.6 5.8 15.6.1 0-5.7-11.6-19.9-11.6-26.8S1060.7 1059.4 1060.7 1059.4zM1141 1000.3l-2.6 17.4c0 0 10.3 0 17.4 0 7.1 0 26.8 0 26.8 0s-1.4-4.3-14.2-6.8c-12.8-2.6-13.5-7-13.5-7l1-11.2-11.7-1.7L1141 1000.3z" clip-rule="evenodd" class="color284190 svgShape"/><polygon fill="#3b5bb2" fill-rule="evenodd" points="1087.8 862.2 1144.5 898.4 1139.4 1001 1156.2 1001 1179.2 884.2 1121.1 813.7" clip-rule="evenodd" class="color3b5bb2 svgShape"/><path fill="#4567c5" fill-rule="evenodd" d="M1121.1,810.1l-15.5,52.1c0,0-23.8,77.8-27.6,122.8c-3.8,45,0,75.8,0,75.8l-21.2,3.4     c0,0-12.2-93.4-7.7-124.7c4.6-31.3-1-107.7-1-107.7l8.7-21.7H1121.1z" clip-rule="evenodd" class="color4567c5 svgShape"/><path fill="#4f8dcb" fill-rule="evenodd" d="M1105.3,665.3l10.7,10.5l12.7,126.8c0,0,9.4,27.9,12.8,44c-4.4,0-16.1,3.2-19.8,5.4     c-5.2-15.8-11.9-46.4-11.9-46.4L1105.3,665.3z" clip-rule="evenodd" class="color4f8dcb svgShape"/><path fill="#4688cb" fill-rule="evenodd" d="M1080.1,834.2c1.3-1.3,58.5,10.7,58.5,10.7l-12.8-90.9l-11.5-54.6l-16.3-39.4c0,0-24.4-5.9-26.1-4.8     l-4.4,70.5L1080.1,834.2z" clip-rule="evenodd" class="color4688cb svgShape"/><path fill="#ffffff" fill-rule="evenodd" d="M1057.4,666.5c0,0,27.4-14.6,45.1,3.2c17.8,17.8,19.2,68,19.2,68v58.1l2.6,25.9l-66.6-7.9l9-88.7     L1057.4,666.5z" clip-rule="evenodd" class="colorfff svgShape"/><path fill="#619fdf" fill-rule="evenodd" d="M1113.9,752.6l-44.9-95.4l-13.9,3.4c-10.1,30.8-3.2,78.7-3.2,92l-18.4,93.1c0,0,71.6-6.2,80.3,2.6V752.6z" clip-rule="evenodd" class="color619fdf svgShape"/><path fill="#4f8dcb" fill-rule="evenodd" d="M1101.9,669.6c0,0,16.2,51.5,16.2,67.2c0,15.8,12.8,108,12.8,108h7.7l-10.7-108l-13.2-49.4L1101.9,669.6z" clip-rule="evenodd" class="color4f8dcb svgShape"/><polygon fill="#619fdf" fill-rule="evenodd" points="1098.1 660 1119.4 754 1114.8 687.4 1110.5 682.9 1113.9 683.7 1105.3 665.3" clip-rule="evenodd" class="color619fdf svgShape"/><polygon fill="#4f8dcb" fill-rule="evenodd" points="1113.9 752.6 1067.6 693.5 1071 687.6 1065.3 687.6 1057 664.5 1059.2 664.3 1079.6 680.9" clip-rule="evenodd" class="color4f8dcb svgShape"/><path fill="#ffb17d" fill-rule="evenodd" d="M1073.6,662c0.6,4.8,3.9,9.2,8.9,10.7c5,1.6,9.8,2.8,12.5,3.4c0.9,0.2,4.7-2,4.7-2.9     c-0.1-3.4-2.4-9.1-1.7-15.3c0.4-3.7,0.8-7,1-9c-1.1-2.7-9.2-23.1-8.7-21.8v0l-1.7-4.2C1088.6,623.1,1073.3,659.9,1073.6,662z" clip-rule="evenodd" class="colorffb17d svgShape"/><path fill="#ef8161" fill-rule="evenodd" d="M1079.1,648.1c1.4,1.4,15.4,12.6,18.4,14.5c0.5-5,1.5-13.6,1.5-13.6s-2.6,2.2-8.6-21.9c0,0,0,0.1,0,0.2v0     C1090,629.3,1077.1,646.1,1079.1,648.1z" clip-rule="evenodd" class="coloref8161 svgShape"/><path fill="#ffb17d" fill-rule="evenodd" d="M1105.1,652.4c0,0-26.8,4-30.8-14.2c-4-18.3-10.5-29.7,8-34.8c18.5-5.2,23.6,1,26.5,6.8     C1111.6,615.9,1112.6,650.1,1105.1,652.4z" clip-rule="evenodd" class="colorffb17d svgShape"/><polygon fill="#619fdf" fill-rule="evenodd" points="1113.9 752.6 1073.7 691.7 1078 682.6 1069 683.1 1056.8 664.1 1072 655.2" clip-rule="evenodd" class="color619fdf svgShape"/><path fill="#284190" fill-rule="evenodd" d="M1077.1,604.2c-5.5,2.7-7.4,5.1-5.5,7.3c8.4,1.2,16.3,0.3,24-2.7C1091,609.1,1084.8,607.6,1077.1,604.2z" clip-rule="evenodd" class="color284190 svgShape"/><path fill="#284190" fill-rule="evenodd" d="M1109.6,612.4c-6.3-6.3-18.1-7.1-34.4-1.1c-10.3-2.6-12.6-7.3-8.3-15.1c6.2-10.9,19.5-2.3,35.8-12.6     C1102.1,591.6,1126.3,598.5,1109.6,612.4z" clip-rule="evenodd" class="color284190 svgShape"/><path fill="#125aa2" fill-rule="evenodd" d="M1100.2,620.4c1.8-0.8,3.4-1.8,5.3-2.6c2.8-1.2,3.6,1.1,5.5,1.3c-0.4-0.3-0.4-0.5-0.8-1     c-2.6-2.9-4.9-2.2-7.9-0.6C1100.6,618.4,1100.3,617.9,1100.2,620.4z" clip-rule="evenodd" class="color125aa2 svgShape"/><path fill="#ffffff" fill-rule="evenodd" d="M1105.2,619.6c1,0,1.7,1,1.7,2.1c0,1.2-0.8,2.1-1.7,2.1c-1,0-1.7-1-1.7-2.1      C1103.5,620.6,1104.3,619.6,1105.2,619.6z" clip-rule="evenodd" class="colorfff svgShape"/><path fill="#125aa2" fill-rule="evenodd" d="M1105.2 623.9c1 0 1.8-1 1.8-2.1 0-1.2-.8-2.1-1.8-2.1-.4 0-.8.2-1.1.5l.1 0c.3 0 .6.3.6.7 0 .4-.3.7-.6.7-.3 0-.6-.3-.6-.7l0-.1c-.2.3-.2.7-.2 1.1C1103.5 623 1104.3 623.9 1105.2 623.9zM1092.7 620.4c-1.8-.8-3.4-1.8-5.3-2.6-2.8-1.2-3.6 1.1-5.5 1.3.4-.3.4-.5.8-1 2.6-2.9 4.9-2.2 7.9-.6C1092.3 618.4 1092.6 617.9 1092.7 620.4z" clip-rule="evenodd" class="color125aa2 svgShape"/><path fill="#ffffff" fill-rule="evenodd" d="M1087.7,619.6c-1,0-1.7,1-1.7,2.1c0,1.2,0.8,2.1,1.7,2.1c1,0,1.7-1,1.7-2.1      C1089.4,620.6,1088.6,619.6,1087.7,619.6z" clip-rule="evenodd" class="colorfff svgShape"/><path fill="#125aa2" fill-rule="evenodd" d="M1087.7,623.9c-1,0-1.7-1-1.7-2.1c0-1.2,0.8-2.1,1.7-2.1c0.4,0,0.8,0.2,1.1,0.5l-0.1,0      c-0.3,0-0.6,0.3-0.6,0.7c0,0.4,0.3,0.7,0.6,0.7c0.3,0,0.6-0.3,0.6-0.7l0-0.1c0.2,0.3,0.2,0.7,0.2,1.1      C1089.4,623,1088.6,623.9,1087.7,623.9z" clip-rule="evenodd" class="color125aa2 svgShape"/><path fill="none" stroke="#fb9674" stroke-linecap="round" stroke-miterlimit="2.613" stroke-width=".091" d="M1097.7,624.5c1.6,5.2,2.1,8.1,1.7,8.8c-0.6,0.7-1.3,1-2,0.9" clip-rule="evenodd" class="colorStrokefb9674 svgStroke"/><path fill="#ffffff" fill-rule="evenodd" d="M1103.9,641.4c-4.6,3.8-9,3.6-13.2-0.6C1096.3,641.5,1100.8,641.5,1103.9,641.4z" clip-rule="evenodd" class="colorfff svgShape"/><path fill="#ef7162" fill-rule="evenodd" d="M1105.9,615.6c0.1,0.1,0.1,0.2,0.1,0.4c0,0-1.9,2.9-1.1,5.8c0.5,1.9,1.9,3.4,4.3,4.5l0.2,0.1l-0.1,0.2     c0,0.1-1.1,3.1-3.4,3.6l-0.1,0c-0.1,0-0.2-0.1-0.3-0.2c0-0.1,0.1-0.3,0.2-0.3c1.6-0.4,2.6-2.4,2.9-3.1c-2.4-1.2-3.8-2.8-4.3-4.7     c-0.8-3.2,1.1-6.1,1.2-6.2C1105.6,615.6,1105.8,615.5,1105.9,615.6z" clip-rule="evenodd" class="coloref7162 svgShape"/><path fill="#171f32" fill-rule="evenodd" d="M1114.9,613c0.2,0.2,0.2,0.5,0.1,0.7c-0.2,0.2-0.5,0.2-0.7,0.1c-2.3-1.9-6.2,1.7-6.3,1.7     c-0.1,0.1-0.2,0.1-0.3,0.1c-0.1,0-0.3-0.1-0.4-0.2c-0.2-0.2-0.2-0.5,0-0.7C1107.5,614.6,1111.9,610.6,1114.9,613z" clip-rule="evenodd" class="color171f32 svgShape"/><path fill="#86bdf4" fill-rule="evenodd" d="M1302.5,655.3c0,0,13.2-80-1.7-85l-52.7,10.4v0c-12.6,1.7-22.4,15.9-22.4,33.1c0,16.8,9.3,30.7,21.5,33v0     l0.1,0c0.4,0.1,0.7,0.1,1.1,0.2L1302.5,655.3z" clip-rule="evenodd" class="color86bdf4 svgShape"/><path fill="#619fdf" fill-rule="evenodd" d="M1331.5,613.8c0,24-13.8,43.5-30.7,43.5c-17,0-30.7-19.5-30.7-43.5c0-24,13.8-43.5,30.7-43.5     C1317.7,570.3,1331.5,589.8,1331.5,613.8z" clip-rule="evenodd" class="color619fdf svgShape"/><polygon fill="#619fdf" fill-rule="evenodd" points="1316.1 568.5 1298.4 570.4 1298.4 657.1 1316.1 659" clip-rule="evenodd" class="color619fdf svgShape"/><path fill="#4f8dcb" fill-rule="evenodd" d="M1348,613.8c0,25-13.7,45.3-30.7,45.3c-17,0-30.7-20.3-30.7-45.3c0-25,13.8-45.3,30.7-45.3     C1334.2,568.5,1348,588.8,1348,613.8z" clip-rule="evenodd" class="color4f8dcb svgShape"/><path fill="#badaf9" fill-rule="evenodd" d="M1339.9,613.8c0,19.6-10.1,35.4-22.6,35.4c-12.5,0-22.6-15.9-22.6-35.4c0-19.6,10.1-35.4,22.6-35.4     C1329.8,578.4,1339.9,594.2,1339.9,613.8z" clip-rule="evenodd" class="colorbadaf9 svgShape"/><path fill="#ffffff" fill-rule="evenodd" d="M1323.5 598.9c.3 0 .5 0 .7-.1 2.1-.8 2.2-5.4.3-10.1-1.7-4.2-4.5-7.1-6.5-7.1-.3 0-.5 0-.7.1-2.1.8-2.2 5.4-.3 10.1C1318.7 595.9 1321.4 598.9 1323.5 598.9zM1319.6 608.7c.1 0 .2 0 .3-.1.9-.4 1-2.4.1-4.6-.8-1.9-2-3.2-3-3.2-.1 0-.2 0-.3.1-.9.4-1 2.4-.1 4.6C1317.4 607.4 1318.7 608.7 1319.6 608.7z" clip-rule="evenodd" opacity=".31" class="colorfff svgShape"/><polygon fill="#619fdf" fill-rule="evenodd" points="1098.8 605.2 1105.4 605.1 1105.9 631.5 1098.8 631.3 1094.1 613.5" clip-rule="evenodd" class="color619fdf svgShape"/><path fill="#619fdf" fill-rule="evenodd" d="M1107.5,618.3c0,7.2-3.9,13.1-8.7,13.1c-4.8,0-8.7-5.8-8.7-13.1c0-7.2,3.9-13.1,8.7-13.1     C1103.6,605.2,1107.5,611,1107.5,618.3z" clip-rule="evenodd" class="color619fdf svgShape"/><path fill="#86bdf4" fill-rule="evenodd" d="M1113.6,618.3c0,7.3-3.9,13.2-8.7,13.2c-4.8,0-8.7-5.9-8.7-13.2c0-7.3,3.9-13.2,8.7-13.2     C1109.7,605.1,1113.6,611,1113.6,618.3z" clip-rule="evenodd" class="color86bdf4 svgShape"/><polygon fill="#86bdf4" fill-rule="evenodd" points="1124.4 603.8 1104.5 605.1 1104.4 631.4 1124.6 633" clip-rule="evenodd" class="color86bdf4 svgShape"/><path fill="#619fdf" fill-rule="evenodd" d="M1128.1,595.4l38.2-5.7c0,0,1.4,56.8,0.9,56.3c-0.5-0.4-39.1-4.9-39.1-4.9L1128.1,595.4z" clip-rule="evenodd" class="color619fdf svgShape"/><path fill="#619fdf" fill-rule="evenodd" d="M1137.1,618.3c0,12.6-3.9,22.9-8.7,22.9c-4.8,0-8.7-10.2-8.7-22.9c0-12.6,3.9-22.9,8.7-22.9     C1133.2,595.4,1137.1,605.6,1137.1,618.3z" clip-rule="evenodd" class="color619fdf svgShape"/><path fill="#86bdf4" fill-rule="evenodd" d="M1231.9,659c0,0,13.2-80-1.7-85l-52.7,10.4v0c-12.6,1.7-22.4,15.9-22.4,33.1c0,16.8,9.3,30.7,21.5,33v0     l0.1,0c0.4,0.1,0.7,0.1,1.1,0.2L1231.9,659z" clip-rule="evenodd" class="color86bdf4 svgShape"/><path fill="#619fdf" fill-rule="evenodd" d="M1260.9,617.4c0,24-13.8,43.5-30.7,43.5c-17,0-30.7-19.5-30.7-43.5c0-24,13.7-43.5,30.7-43.5     C1247.2,574,1260.9,593.4,1260.9,617.4z" clip-rule="evenodd" class="color619fdf svgShape"/><polygon fill="#619fdf" fill-rule="evenodd" points="1245.6 572.2 1227.9 574.1 1227.9 660.8 1245.5 662.7" clip-rule="evenodd" class="color619fdf svgShape"/><path fill="#4f8dcb" fill-rule="evenodd" d="M1277.4,617.4c0,25-13.8,45.3-30.7,45.3c-17,0-30.7-20.3-30.7-45.3c0-25,13.8-45.3,30.7-45.3     C1263.7,572.2,1277.4,592.4,1277.4,617.4z" clip-rule="evenodd" class="color4f8dcb svgShape"/><path fill="#badaf9" fill-rule="evenodd" d="M1269.4,617.4c0,19.6-10.1,35.4-22.6,35.4c-12.5,0-22.6-15.9-22.6-35.4c0-19.6,10.1-35.4,22.6-35.4     C1259.2,582,1269.4,597.9,1269.4,617.4z" clip-rule="evenodd" class="colorbadaf9 svgShape"/><path fill="#ffffff" fill-rule="evenodd" d="M1255 600.8c.3 0 .5 0 .7-.1 2.1-.8 2.2-5.4.3-10.1-1.7-4.2-4.5-7.1-6.5-7.1-.3 0-.5 0-.7.1-2.1.8-2.2 5.4-.3 10.1C1250.2 597.9 1252.9 600.8 1255 600.8zM1251.1 610.7c.1 0 .2 0 .3-.1.9-.4 1-2.4.1-4.6-.8-1.9-2-3.2-3-3.2-.1 0-.2 0-.3.1-.9.4-1 2.4-.1 4.6C1248.9 609.4 1250.2 610.7 1251.1 610.7z" clip-rule="evenodd" opacity=".31" class="colorfff svgShape"/><path fill="#ffb17d" fill-rule="evenodd" d="M1149.6,620.3c0,0,0.5,2.5,0.7,3.3c0.1,1,0.3,4,0.3,4s-0.1,10.6-0.9,10.5c-0.8,0-2.6-0.9-2.8-1.6     c-0.2-0.6,0-2.1-0.3-2.7c-0.2-0.6-1.1-1.2-1.9-1c-0.8,0.3-0.9,3.8-0.9,3.8s-0.1,2.9,0.9,4.6c3.4,6,4.3,5.2,4.7,5.9     c0.5,0.9-0.9,15.1-0.9,15.1s-5.6,41.7-5.9,44l0,0c1.5,1.1,3.4,0.9,5.1,1.2c5.4,1.7,6.6,0.4,12.1,1.7c0.4-6.7,1.4-53.4,1.4-58.2     c0,0,2.3-6.1,3.6-9.9c1.3-3.8,0.9-8,1.1-9.1c0-0.2,0.5-4-0.2-8.7c-0.6-4.1-1.9,0.1-1.9,0.1s-0.3,7.9-0.9,7.8     c-0.5-0.1-0.1-4.4-0.7-8.9c-0.1-1.2-0.3-2.3-0.5-3.4c-0.4-2.8-2.3-3.3-2.3-0.3c0,1.1,0,2.8,0.2,4.1c0.2,1.4-0.1,2.7-0.1,3.8     c0,2.3,0,4-0.1,3.9c-0.1-0.1-0.4,0.4-0.7-0.8c-0.2-1.5-0.1-4.8-0.6-7c-0.3-1.2-0.8-3.8-0.8-3.8s-1.5-3.8-1.7-3.7     c-1.4,0.1-1.1,3-0.5,4.6c-0.1,1.2,0.4,4,0.4,4s-0.1,5.8-0.9,5.9c-0.4,0-0.7-3.5-1.7-6.9c-0.9-3.2-2.2-6.2-2.9-6.1     C1149,616.7,1149.6,620.3,1149.6,620.3z" clip-rule="evenodd" class="colorffb17d svgShape"/><path fill="#5695d5" fill-rule="evenodd" d="M1073.1,660c-6.4-3.1-17.6-6.8-19.3,5.3c0,0.8,0,1.5-0.1,2.3c-1,39.4,46.8,75.5,55.9,78.5     c42.6,40,55.9-37.1,54-95.6l-17-4.2c0,0-10.2,78.5-19.2,69.5C1119.7,708.1,1077.5,662.2,1073.1,660z" clip-rule="evenodd" class="color5695d5 svgShape"/><path fill="#4f8dcb" fill-rule="evenodd" d="M1158 659.4c.9-.2 1.7.4 1.9 1.2.2.9-.4 1.7-1.2 1.9-.8.2-1.7-.4-1.9-1.2S1157.2 659.6 1158 659.4zM1157.5 666.5c.8-.2 1.7.4 1.9 1.2.2.9-.4 1.7-1.2 1.9-.9.2-1.7-.4-1.9-1.2S1156.7 666.7 1157.5 666.5z" clip-rule="evenodd" class="color4f8dcb svgShape"/><g fill="#000000" class="color000 svgShape"><polygon fill="#a3cffb" fill-rule="evenodd" points="1600.9 602.5 1543.3 648.2 1567.9 665.9" clip-rule="evenodd" class="colora3cffb svgShape"/><polygon fill="#a3cffb" fill-rule="evenodd" points="1531 640.1 1599 603.2 1510.5 636" clip-rule="evenodd" class="colora3cffb svgShape"/><polygon fill="#71aeec" fill-rule="evenodd" points="1531 640.1 1541.4 669.7 1543.3 648.2 1600.9 602.5 1599 603.2" clip-rule="evenodd" class="color71aeec svgShape"/><polygon fill="#4f8dcb" fill-rule="evenodd" points="1541.4 669.7 1554.2 656 1543.3 648.2" clip-rule="evenodd" class="color4f8dcb svgShape"/><path fill="#71aeec" fill-rule="evenodd" d="M1526.1,657.9c1.6-0.9,2.8,1.4,1.4,2.2c-0.7,0.5-1.5,0.9-2.2,1.4c-1.7,1-2.8-1.4-1.4-2.2    C1524.6,658.8,1525.3,658.3,1526.1,657.9L1526.1,657.9z M1601,793.8c-0.4,1.7-3,1.1-2.5-0.7c0.2-0.8,0.4-1.7,0.6-2.5    c0.4-1.8,3-1,2.6,0.6C1601.4,792.1,1601.2,792.9,1601,793.8L1601,793.8z M1602.7,783.2c0,1.6-2.6,1.8-2.6-0.1    c0-0.8,0.1-1.7,0.1-2.6c0-1.7,2.6-1.7,2.6,0C1602.8,781.4,1602.8,782.3,1602.7,783.2L1602.7,783.2z M1602.1,772.4    c0.2,1.8-2.2,2.2-2.6,0.5c-0.2-0.8-0.3-1.7-0.6-2.5c-0.4-1.7,2.1-2.3,2.5-0.7C1601.7,770.7,1601.9,771.6,1602.1,772.4    L1602.1,772.4z M1598.7,762.2c0.8,1.3-1.4,2.8-2.3,1.2c-0.3-0.7-0.8-1.6-1.2-2.2c-0.9-1.5,1.4-2.8,2.3-1.3    C1597.8,760.5,1598.3,761.4,1598.7,762.2L1598.7,762.2z M1592.7,753.2c1.1,1.4-0.9,3-2,1.7c-0.6-0.6-1.1-1.3-1.7-1.9    c-1.2-1.2,0.6-3.1,1.9-1.8C1591.5,751.8,1592.1,752.5,1592.7,753.2L1592.7,753.2z M1584.9,745.8c1.4,1.2-0.4,3.1-1.6,2.1    c-0.7-0.5-1.4-1-2.1-1.5c-1.4-1,0.1-3.1,1.5-2.2C1583.5,744.7,1584.2,745.2,1584.9,745.8L1584.9,745.8z M1575.9,740    c1.6,0.9,0.2,3.1-1.2,2.3c-0.8-0.4-1.5-0.8-2.3-1.2c-1.7-1-0.2-3.1,1.2-2.4C1574.3,739.1,1575.1,739.5,1575.9,740L1575.9,740z     M1566.2,735.6c1.6,0.6,0.7,3.1-0.9,2.5l-2.4-0.9c-1.7-0.6-0.7-3.1,0.8-2.5C1564.5,735,1565.4,735.3,1566.2,735.6L1566.2,735.6z     M1556,732.4c1.7,0.4,1,3-0.6,2.6l-2.5-0.6c-1.8-0.4-1-3,0.5-2.6L1556,732.4L1556,732.4z M1545.6,730.5c1.7,0.2,1.4,2.8-0.3,2.6    l-2.6-0.3c-1.8-0.2-1.4-2.8,0.3-2.6C1543.8,730.3,1544.7,730.4,1545.6,730.5L1545.6,730.5z M1535,729.6c1.7,0.2,1.6,2.6-0.2,2.6    c-0.9-0.1-1.8-0.1-2.6-0.2c-1.9-0.2-1.4-2.8,0.2-2.6L1535,729.6L1535,729.6z M1524.7,728.7c1.7,0.2,1.4,2.8-0.3,2.6    c-0.9-0.1-1.8-0.2-2.6-0.4c-1.6-0.2-1.4-2.8,0.4-2.6C1522.9,728.4,1523.8,728.6,1524.7,728.7L1524.7,728.7z M1514.5,726.8    c1.7,0.4,1,3-0.6,2.5c-0.9-0.2-1.7-0.4-2.6-0.7c-1.6-0.4-1.1-3,0.7-2.5C1512.8,726.4,1513.7,726.6,1514.5,726.8L1514.5,726.8z     M1504.7,723.6c1.5,0.7,0.6,3.1-1.1,2.4c-0.8-0.4-1.6-0.8-2.4-1.2c-1.5-0.9-0.2-3.1,1.3-2.3C1503.2,722.9,1504,723.3,1504.7,723.6    L1504.7,723.6z M1496.4,718.1c1.2,1.2-0.6,3.1-1.9,1.8c-0.7-0.7-1.3-1.4-1.9-2.1c-1-1.2,0.9-3,2.1-1.6    C1495.3,717,1495.8,717.6,1496.4,718.1L1496.4,718.1z M1491.7,709.8c0.4,1.5-2.1,2.3-2.6,0.5c-0.2-0.9-0.3-1.8-0.4-2.8    c0-1.9,2.6-1.7,2.6-0.1C1491.5,708.2,1491.6,709,1491.7,709.8L1491.7,709.8z M1492.3,700c-0.4,1.6-3,1.1-2.5-0.7    c0.2-0.9,0.5-1.7,0.8-2.6c0.6-1.6,3.1-0.7,2.5,0.9C1492.8,698.4,1492.6,699.2,1492.3,700L1492.3,700z M1496.4,690.7    c-0.8,1.5-3.1,0.2-2.3-1.3c0.4-0.7,1-1.6,1.4-2.3c0.8-1.3,3.2-0.2,2.2,1.4C1497.3,689.1,1496.7,690.1,1496.4,690.7L1496.4,690.7z     M1502.3,682.3c-1.1,1.4-3.1-0.4-2-1.7c0.6-0.7,1.1-1.4,1.7-2c1.1-1.3,3.1,0.3,2,1.7C1503.4,680.9,1502.8,681.6,1502.3,682.3    L1502.3,682.3z M1509.2,674.6c-1.2,1.2-3.1-0.6-1.8-1.9c0.6-0.6,1.3-1.3,1.9-1.8c1.2-1.2,3.1,0.6,1.8,1.9    C1510.5,673.4,1509.9,674,1509.2,674.6L1509.2,674.6z M1516.9,667.7c-1.3,1.1-3-0.9-1.7-2l2.1-1.7c1.2-1,3,0.9,1.6,2.1    C1518.3,666.5,1517.6,667.1,1516.9,667.7z" clip-rule="evenodd" class="color71aeec svgShape"/></g><g fill="#000000" class="color000 svgShape"><polygon fill="#a3cffb" fill-rule="evenodd" points="209 772.7 277.5 800.8 258.7 824.9" clip-rule="evenodd" class="colora3cffb svgShape"/><polygon fill="#a3cffb" fill-rule="evenodd" points="287.2 789.5 211 772.9 305.9 779.8" clip-rule="evenodd" class="colora3cffb svgShape"/><polygon fill="#71aeec" fill-rule="evenodd" points="287.2 789.5 285.4 821.1 277.5 800.8 209 772.7 211 772.9" clip-rule="evenodd" class="color71aeec svgShape"/><polygon fill="#4f8dcb" fill-rule="evenodd" points="285.4 821.1 269.2 811.5 277.5 800.8" clip-rule="evenodd" class="color4f8dcb svgShape"/><path fill="#71aeec" fill-rule="evenodd" d="M303.1,818.8c-2.2-0.3-1.7-3.5,0.3-3.3l3.3,0.4c2.2,0.3,1.7,3.5-0.4,3.3L303.1,818.8L303.1,818.8z     M415.5,949.5c1.5,0,2.2,1.8,1.2,2.8c-0.2,0.3-0.7,0.5-1.2,0.5l-2.1,0c-2.1,0-2.2-3.3,0-3.3L415.5,949.5L415.5,949.5z     M403.7,949.2c1.9,0,2.2,3.3-0.2,3.3l-3.3-0.2c-2.4-0.3-1.7-3.5,0.2-3.3L403.7,949.2L403.7,949.2z M390.7,948    c2,0.3,1.8,3.5-0.5,3.3L390.7,948L390.7,948z M378.2,945.2c2,0.7,1.2,3.7-1,3.1c-1.1-0.3-2.1-0.7-3.2-1.1c-2-0.9-0.8-3.8,1.2-3.1    C376.1,944.6,377.1,944.9,378.2,945.2L378.2,945.2z M367,939.6c1.7,1.4-0.4,3.9-2.1,2.6c-0.9-0.8-1.8-1.6-2.6-2.4    c-1.5-1.8,1.2-3.8,2.5-2.2C365.5,938.3,366.2,939,367,939.6L367,939.6z M360.8,929.6c0.3,2.3-3,2.5-3.2,0.6    c-0.2-1.2-0.3-2.3-0.4-3.5c0-2.3,3.3-2.1,3.3-0.1C360.5,927.6,360.7,928.6,360.8,929.6L360.8,929.6z M361.7,917.3    c-0.5,2-3.7,1.3-3.2-0.9c0.3-1.1,0.6-2.2,1-3.2c0.8-2.2,3.8-0.9,3.1,1.1C362.3,915.3,362,916.3,361.7,917.3L361.7,917.3z     M366.3,905.3c-0.8,1.9-3.9,0.7-3-1.4c0.5-1,0.9-2,1.4-3c1.2-2.1,3.9-0.2,3,1.4C367.2,903.3,366.7,904.3,366.3,905.3L366.3,905.3z     M372.1,893.6c-1.1,2-3.9,0.2-2.9-1.5l1.5-2.9c1.1-2,3.9-0.2,2.9,1.5C373.1,891.7,372.6,892.7,372.1,893.6L372.1,893.6z     M378.3,881.9c-1.2,2.1-3.9,0.2-2.9-1.5l1.4-2.9c1.1-2,3.8-0.5,3,1.4L378.3,881.9L378.3,881.9z M383.6,869.6c-0.7,2-3.7,1.2-3.1-1    c0.3-1,0.6-2,0.9-3c0.5-2.1,3.7-1.3,3.2,0.8C384.3,867.5,384,868.6,383.6,869.6L383.6,869.6z M385.2,856c0.3,2.2-3,2.6-3.3,0.4    c-0.1-1-0.3-2-0.6-3c-0.5-2.1,2.7-2.9,3.2-0.8C384.9,853.7,385.1,854.8,385.2,856L385.2,856z M380.2,843.1    c1.3,1.8-1.4,3.7-2.7,1.9c-0.6-0.9-1.3-1.7-1.9-2.4c-1.5-1.8,1.2-3.7,2.4-2.2C378.8,841.2,379.5,842.2,380.2,843.1L380.2,843.1z     M370.3,833.7c1.7,1.2,0.2,3.9-1.8,2.7c-0.9-0.6-1.8-1.2-2.7-1.7c-1.8-1-0.3-3.9,1.7-2.8C368.4,832.5,369.3,833.1,370.3,833.7    L370.3,833.7z M358.4,827.4c2,0.9,0.7,3.9-1.3,3c-1-0.4-2-0.8-3-1.2c-2-0.8-0.9-3.8,1.2-3.1C356.3,826.6,357.3,827,358.4,827.4    L358.4,827.4z M345.8,823c2,0.5,1.3,3.7-0.9,3.2l-3.1-0.9c-2.1-0.5-1.3-3.7,0.8-3.2L345.8,823L345.8,823z M332.9,819.9    c2.3,0.6,1.3,3.7-0.7,3.2l-3.2-0.6c-2.1-0.5-1.6-3.5,0.6-3.2L332.9,819.9L332.9,819.9z M319.8,817.6c2,0.3,1.8,3.5-0.5,3.3    l-3.2-0.5c-2.1-0.3-1.8-3.5,0.5-3.3L319.8,817.6z" clip-rule="evenodd" class="color71aeec svgShape"/></g><g fill="#000000" class="color000 svgShape"><polygon fill="#a3cffb" fill-rule="evenodd" points="1327.8 1278 1396.4 1306.1 1377.6 1330.2" clip-rule="evenodd" class="colora3cffb svgShape"/><polygon fill="#a3cffb" fill-rule="evenodd" points="1406.1 1294.8 1329.9 1278.1 1424.7 1285.1" clip-rule="evenodd" class="colora3cffb svgShape"/><polygon fill="#71aeec" fill-rule="evenodd" points="1406.1 1294.8 1404.3 1326.4 1396.4 1306.1 1327.8 1278 1329.9 1278.1" clip-rule="evenodd" class="color71aeec svgShape"/><polygon fill="#4f8dcb" fill-rule="evenodd" points="1404.3 1326.4 1388 1316.8 1396.4 1306.1" clip-rule="evenodd" class="color4f8dcb svgShape"/><path fill="#71aeec" fill-rule="evenodd" d="M1416.7,1311.2c-1.6-0.2-2,2.3-0.3,2.5l2.5,0.3c1.6,0.2,2-2.3,0.3-2.5L1416.7,1311.2L1416.7,1311.2z     M1559.8,1473.2c1.5-0.9,0.4-2.9-1.1-2.3c-0.7,0.3-1.5,0.7-2.2,1c-1.5,0.7-0.5,3,1,2.3L1559.8,1473.2L1559.8,1473.2z     M1550.2,1476.9c1.5-0.4,1-2.9-0.7-2.4c-0.8,0.2-1.6,0.4-2.4,0.6c-1.7,0.4-1,2.9,0.6,2.5    C1548.5,1477.4,1549.3,1477.1,1550.2,1476.9L1550.2,1476.9z M1540,1478.7c1.7-0.2,1.5-2.5-0.2-2.5c-0.8,0.1-1.6,0.1-2.5,0.1    c-1.7,0-1.7,2.5,0,2.5C1538.2,1478.8,1539.1,1478.8,1540,1478.7L1540,1478.7z M1529.6,1478.2c1.7,0.2,2.1-2.1,0.5-2.5    c-0.8-0.1-1.6-0.3-2.4-0.5c-1.6-0.4-2.2,2.1-0.6,2.5C1527.9,1477.9,1528.7,1478.1,1529.6,1478.2L1529.6,1478.2z M1519.6,1474.9    c1.3,0.7,2.7-1.3,1.1-2.3c-0.7-0.4-1.4-0.8-2.1-1.2c-1.5-0.8-2.7,1.4-1.3,2.2C1518.1,1474.1,1518.9,1474.6,1519.6,1474.9    L1519.6,1474.9z M1511,1469.1c1.4,1.1,2.9-0.9,1.7-1.9c-0.6-0.5-1.2-1.1-1.8-1.7c-1.2-1.2-3,0.6-1.8,1.8    C1509.7,1467.9,1510.4,1468.5,1511,1469.1L1511,1469.1z M1504.2,1461.2c0.9,1.3,3,0.1,2.1-1.4c-0.5-0.7-0.9-1.4-1.3-2.1    c-0.8-1.4-3-0.2-2.2,1.3C1503.2,1459.8,1503.7,1460.5,1504.2,1461.2L1504.2,1461.2z M1499.3,1452.1c0.6,1.5,3,0.7,2.4-0.9    c-0.3-0.8-0.6-1.5-0.9-2.3c-0.6-1.6-2.9-0.7-2.4,0.8C1498.7,1450.5,1499,1451.3,1499.3,1452.1L1499.3,1452.1z M1496.3,1442.2    c0.4,1.6,2.9,1,2.5-0.6l-0.6-2.4c-0.4-1.7-2.9-1-2.5,0.5L1496.3,1442.2L1496.3,1442.2z M1494.2,1432.3c0.2,1.5,2.7,1.4,2.5-0.5    l-0.4-2.5c-0.2-1.5-2.7-1.4-2.5,0.4L1494.2,1432.3L1494.2,1432.3z M1492.4,1422.3c0.2,1.5,2.7,1.4,2.5-0.5l-0.5-2.5    c-0.4-1.6-2.7-1.2-2.5,0.5L1492.4,1422.3L1492.4,1422.3z M1490.4,1412.5c0.4,1.6,2.9,1,2.5-0.6c-0.2-0.8-0.4-1.7-0.6-2.5    c-0.4-1.5-2.9-1-2.4,0.7C1490,1410.8,1490.2,1411.7,1490.4,1412.5L1490.4,1412.5z M1487.8,1403.5c0.9,0.7,2.4-0.2,1.9-1.5    c-0.2-0.5-0.4-1.1-0.7-1.6c0.1-0.6-0.3-1.1-0.8-1.3c-0.9-0.6-2.3,0.2-1.9,1.5c-0.2,0.5-0.4,1.1-0.6,1.6    C1485.3,1403.6,1487,1404.4,1487.8,1403.5L1487.8,1403.5z M1482.8,1394.4c1.1,1.3,3-0.2,2-1.5c-0.5-0.7-1.1-1.4-1.6-2.1    c-1-1.2-3,0.3-1.9,1.7C1481.8,1393.1,1482.3,1393.7,1482.8,1394.4L1482.8,1394.4z M1475.8,1387.7c1.6,0.9,2.7-1.4,1.4-2.1    c-0.7-0.5-1.5-0.9-2.3-1.4c-1.4-0.8-2.7,1.4-1.2,2.2C1474.5,1386.9,1475.2,1387.3,1475.8,1387.7L1475.8,1387.7z M1467,1383.8    c1.7,0.4,2.2-2.1,0.6-2.4c-0.8-0.2-1.7-0.4-2.5-0.6c-1.5-0.4-2.3,2-0.5,2.5C1465.4,1383.4,1466.2,1383.6,1467,1383.8L1467,1383.8z     M1457.2,1382.2c1.5,0.2,2-2.3,0.2-2.5c-0.9-0.1-1.7-0.1-2.6-0.1c-1.8,0-1.6,2.5-0.1,2.5    C1455.6,1382.1,1456.4,1382.2,1457.2,1382.2L1457.2,1382.2z M1447.4,1382.4c1.6-0.2,1.3-2.7-0.3-2.5c-0.9,0.1-1.7,0.2-2.6,0.4    c-1.6,0.4-1.2,2.7,0.5,2.5C1445.8,1382.6,1446.6,1382.5,1447.4,1382.4L1447.4,1382.4z M1438,1385c1.5-0.6,0.5-3-1-2.3    c-0.8,0.4-1.6,0.8-2.4,1.2c-1.4,0.8-0.2,3,1.3,2.2l-1.3-2.2l1.3,2.2C1436.6,1385.6,1437.3,1385.3,1438,1385L1438,1385z     M1430.3,1390.5c1.1-1.3-0.9-2.9-1.9-1.7c-0.6,0.7-1.1,1.4-1.6,2.1c-0.9,1.6,1.4,2.7,2.1,1.4    C1429.3,1391.8,1429.8,1391.1,1430.3,1390.5L1430.3,1390.5z M1426.2,1398.9c0.2-1.7-2.1-2.1-2.5-0.5c-0.2,0.9-0.3,1.8-0.4,2.7    c0,1.7,2.3,1.8,2.5,0.2C1425.9,1400.5,1426,1399.7,1426.2,1398.9L1426.2,1398.9z M1426.7,1408.3c-0.4-1.4-2.9-1-2.4,0.8    c0.3,0.9,0.6,1.7,0.9,2.5c0.6,1.5,3,0.5,2.3-1C1427.2,1409.8,1427,1409.1,1426.7,1408.3L1426.7,1408.3z M1431.4,1416.6    c-1-1.2-3,0.3-1.9,1.7c0.6,0.7,1.2,1.3,1.8,1.9c1.3,1.1,2.9-0.7,1.7-1.9C1432.5,1417.8,1431.9,1417.2,1431.4,1416.6L1431.4,1416.6    z M1439,1422.6c-1.4-0.8-2.7,1.4-1.2,2.2c0.8,0.4,1.6,0.8,2.4,1.2c1.6,0.7,2.5-1.7,1-2.3C1440.4,1423.3,1439.7,1422.9,1439,1422.6    L1439,1422.6z M1448.1,1426c-1.5-0.4-2.3,2-0.5,2.5c0.9,0.2,1.7,0.4,2.6,0.5c1.7,0.2,2-2.3,0.3-2.5    C1449.6,1426.3,1448.9,1426.1,1448.1,1426L1448.1,1426z M1457.7,1426.6c-1.7,0.2-1.3,2.7,0.3,2.5c0.9-0.1,1.8-0.2,2.6-0.4    c1.7-0.4,1-2.8-0.5-2.5C1459.3,1426.4,1458.5,1426.5,1457.7,1426.6L1457.7,1426.6z M1467,1424c-1.5,0.9-0.4,2.9,1.1,2.3    c0.8-0.4,1.6-0.8,2.3-1.2c1.4-0.8,0.2-3-1.3-2.2C1468.4,1423.2,1467.7,1423.6,1467,1424L1467,1424z M1475,1418.5    c-1.2,1.2,0.6,3,1.7,1.8c0.6-0.6,1.3-1.2,1.9-1.9c1.2-1.4-0.9-2.9-1.9-1.7C1476.2,1417.3,1475.6,1417.9,1475,1418.5L1475,1418.5z     M1481.3,1410.9c-0.9,1.6,1.4,2.7,2.1,1.4c0.5-0.7,0.9-1.5,1.4-2.2c0.8-1.5-1.4-2.7-2.2-1.3    C1482.1,1409.5,1481.7,1410.2,1481.3,1410.9L1481.3,1410.9z M1488.6,1392.7c-0.4,1.5,2,2.3,2.5,0.5c0.2-0.8,0.3-1.7,0.5-2.5    c0.2-1.7-2.3-2-2.5-0.4C1488.9,1391.1,1488.8,1391.9,1488.6,1392.7L1488.6,1392.7z M1489.8,1382.9c0,1.8,2.5,1.6,2.5,0.1    c0-0.9,0.1-1.7,0.1-2.6c0-1.7-2.5-1.7-2.5,0C1489.9,1381.2,1489.8,1382.1,1489.8,1382.9L1489.8,1382.9z M1489.4,1373    c0.2,1.7,2.7,1.3,2.5-0.3c-0.1-0.9-0.2-1.7-0.4-2.6c-0.2-1.5-2.7-1.4-2.5,0.4C1489.2,1371.3,1489.3,1372.2,1489.4,1373    L1489.4,1373z M1487.4,1363.3c0.4,1.5,2.9,1,2.4-0.7c-0.2-0.8-0.5-1.6-0.8-2.5c-0.6-1.7-2.9-0.7-2.4,0.8    C1487,1361.7,1487.2,1362.5,1487.4,1363.3L1487.4,1363.3z M1483.9,1354c0.9,1.6,3,0.2,2.3-1.1c-0.4-0.8-0.8-1.5-1.2-2.3    c-0.9-1.5-3-0.2-2.2,1.2C1483.2,1352.5,1483.6,1353.3,1483.9,1354L1483.9,1354z M1478.9,1345.5c1,1.4,3-0.1,2.1-1.5    c-0.5-0.7-1-1.4-1.5-2.1c-1.1-1.4-3,0.4-2,1.6C1478,1344.1,1478.5,1344.8,1478.9,1345.5L1478.9,1345.5z M1472.6,1337.8    c1.2,1.2,3-0.6,1.8-1.8c-0.6-0.6-1.2-1.2-1.8-1.8c-1.1-1.1-3,0.6-1.7,1.8C1471.5,1336.7,1472,1337.2,1472.6,1337.8L1472.6,1337.8z     M1465.2,1331.3c1.2,1,2.9-0.9,1.5-2c-0.7-0.5-1.4-1-2.1-1.5c-1.3-0.9-2.8,1.1-1.4,2.1C1463.9,1330.3,1464.5,1330.8,1465.2,1331.3    L1465.2,1331.3z M1456.9,1325.8c1.4,0.8,2.7-1.4,1.2-2.2c-0.7-0.4-1.5-0.8-2.3-1.2c-1.3-0.8-2.7,1.4-1.2,2.3    C1455.4,1325,1456.2,1325.4,1456.9,1325.8L1456.9,1325.8z M1447.9,1321.4c1.5,0.6,2.5-1.7,1-2.3c-0.8-0.3-1.6-0.7-2.4-1    c-1.6-0.6-2.5,1.8-0.9,2.4C1446.4,1320.8,1447.2,1321.1,1447.9,1321.4L1447.9,1321.4z M1438.5,1318.1c1.7,0.4,2.2-2.1,0.7-2.4    l-2.5-0.7c-1.7-0.4-2.2,2.1-0.7,2.4L1438.5,1318.1L1438.5,1318.1z M1428.8,1315.6c1.5,0.4,2.3-2,0.5-2.5c-0.8-0.2-1.7-0.3-2.5-0.5    c-1.8-0.2-1.9,2.3-0.5,2.5C1427.2,1315.3,1428,1315.5,1428.8,1315.6z" clip-rule="evenodd" class="color71aeec svgShape"/></g><g fill="#000000" class="color000 svgShape"><polygon fill="#a3cffb" fill-rule="evenodd" points="913.3 453.8 855.7 499.5 880.3 517.2" clip-rule="evenodd" class="colora3cffb svgShape"/><polygon fill="#a3cffb" fill-rule="evenodd" points="843.4 491.4 911.4 454.5 822.9 487.3" clip-rule="evenodd" class="colora3cffb svgShape"/><polygon fill="#71aeec" fill-rule="evenodd" points="843.4 491.4 853.8 521 855.7 499.5 913.3 453.8 911.4 454.5" clip-rule="evenodd" class="color71aeec svgShape"/><polygon fill="#4f8dcb" fill-rule="evenodd" points="853.8 521 866.6 507.4 855.7 499.5" clip-rule="evenodd" class="color4f8dcb svgShape"/><path fill="#71aeec" fill-rule="evenodd" d="M843.9,514.2c1.6-0.9,0.2-3-1.1-2.2c-0.8,0.4-1.5,0.8-2.2,1.2c-1.4,0.8-0.2,3,1.2,2.2    C842.5,514.9,843.2,514.5,843.9,514.2L843.9,514.2z M647.2,550.5c-1.1-1.4-2.9,0.4-2,1.5l1.5,2c1.1,1.3,3-0.3,2-1.5L647.2,550.5    L647.2,550.5z M653.5,558c-1.2-1.2-2.9,0.6-1.8,1.7c0.6,0.6,1.2,1.2,1.8,1.8c1.1,1.2,2.9-0.6,1.8-1.8    C654.6,559.2,654,558.6,653.5,558L653.5,558z M660.6,564.8c-1.3-1-2.9,0.9-1.6,1.9c0.6,0.5,1.3,1.1,2,1.6c1.2,1,2.9-0.8,1.5-2    C661.9,565.8,661.2,565.3,660.6,564.8L660.6,564.8z M668.5,570.6c-1.6-0.9-2.6,1.4-1.3,2.1c0.7,0.5,1.4,0.9,2.1,1.3    c1.5,0.8,2.7-1.4,1.3-2.1C669.9,571.5,669.2,571,668.5,570.6L668.5,570.6z M677.1,575.4c-1.6-0.7-2.5,1.7-1.1,2.3    c0.8,0.4,1.5,0.7,2.3,1.1c1.5,0.7,2.5-1.6,1-2.3C678.5,576.1,677.8,575.7,677.1,575.4L677.1,575.4z M686.1,579.1    c-1.4-0.5-2.4,1.7-0.8,2.4c0.8,0.3,1.6,0.5,2.4,0.8c1.7,0.4,2.2-2,0.7-2.4C687.7,579.6,686.9,579.4,686.1,579.1L686.1,579.1z     M695.6,581.7c-1.5-0.4-2.2,2-0.5,2.4c0.8,0.2,1.6,0.3,2.5,0.5c1.8,0.2,1.9-2.3,0.4-2.5C697.2,582,696.4,581.9,695.6,581.7    L695.6,581.7z M705.3,583.2c-1.6-0.2-2,2.3-0.2,2.5c0.8,0.1,1.7,0.2,2.5,0.2c1.5,0.2,2-2.3,0.2-2.5L705.3,583.2L705.3,583.2z     M715.1,583.7c-1.6,0-1.6,2.5,0,2.5c0.8,0,1.7,0,2.5,0c1.5,0,1.7-2.5-0.1-2.5C716.8,583.7,716,583.7,715.1,583.7L715.1,583.7z     M725,583.2c-1.7,0.2-1.3,2.7,0.3,2.5c0.8-0.1,1.7-0.2,2.5-0.3c1.6-0.2,1.3-2.7-0.3-2.5C726.6,583,725.8,583.1,725,583.2    L725,583.2z M734.7,581.6c-1.7,0.4-1,2.8,0.5,2.4c0.8-0.2,1.6-0.4,2.5-0.6c1.6-0.4,1-2.8-0.6-2.4    C736.3,581.3,735.5,581.4,734.7,581.6L734.7,581.6z M744.2,579.1c-1.6,0.6-0.6,2.9,0.8,2.4c0.8-0.3,1.6-0.5,2.4-0.8    c1.6-0.6,0.7-2.9-0.8-2.3C745.7,578.6,745,578.8,744.2,579.1L744.2,579.1z M753.4,575.5c-1.4,0.6-0.5,2.9,1,2.3    c0.8-0.4,1.5-0.7,2.3-1.1c0.7-0.4,0.8-1,0.6-1.6l0.4,0.1c1.8,0.2,1.9-2.3,0.5-2.5c-0.8-0.2-1.6-0.3-2.4-0.5    c-1.6-0.4-2.2,2-0.6,2.4L753.4,575.5L753.4,575.5z M762,570.9c-1.3,0.7-0.2,3,1.3,2.1c0.7-0.5,1.4-0.9,2.1-1.4    c1.4-1-0.1-3-1.4-2.1C763.4,570.1,762.7,570.5,762,570.9L762,570.9z M769.8,565.1c-1.2,1,0.3,3,1.7,1.9c0.6-0.6,1.3-1.1,1.9-1.7    c1.2-1.2-0.6-2.9-1.8-1.8C771,564,770.4,564.6,769.8,565.1L769.8,565.1z M776.3,557.9c-0.9,1.3,1.1,2.8,2.1,1.4    c0.5-0.7,1-1.5,1.4-2.2c0.8-1.4-1.4-2.7-2.2-1.2C777.2,556.6,776.7,557.3,776.3,557.9L776.3,557.9z M780.2,549.4    c-0.4,1.5,2,2.2,2.4,0.5c0.2-0.9,0.3-1.7,0.4-2.6c0.2-1.6-2.3-1.9-2.5-0.3C780.5,547.8,780.4,548.6,780.2,549.4L780.2,549.4z     M780.1,540.1c0.4,1.5,2.8,1,2.4-0.7c-0.2-0.8-0.5-1.7-0.9-2.5c-0.6-1.5-2.9-0.5-2.3,1C779.6,538.6,779.9,539.4,780.1,540.1    L780.1,540.1z M775.7,531.7c1.1,1.3,2.9-0.2,2-1.5c-0.5-0.7-1-1.4-1.6-2c-1.1-1.3-3,0.3-1.9,1.6    C774.8,530.4,775.3,531,775.7,531.7L775.7,531.7z M769.2,524.7c1.2,1,2.9-0.8,1.5-2c-0.7-0.5-1.4-1-2.1-1.5    c-1.6-0.9-2.6,1.4-1.4,2.1C767.9,523.7,768.6,524.2,769.2,524.7L769.2,524.7z M760.8,520.3c1.6,0.4,2.2-2,0.6-2.4    c-0.8-0.2-1.7-0.4-2.6-0.5c-1.7-0.2-1.9,2.3-0.3,2.5C759.3,520,760.1,520.1,760.8,520.3L760.8,520.3z M751.5,520.1    c1.7-0.4,1-2.8-0.5-2.4c-0.8,0.2-1.7,0.4-2.5,0.7c-1.5,0.6-0.9,2.8,0.8,2.4C750,520.4,750.8,520.2,751.5,520.1L751.5,520.1z     M742.9,523.8c1.4-1-0.1-3-1.4-2.1c-0.7,0.5-1.4,1-2.1,1.5c-1.3,1.1,0.3,3,1.6,1.9C741.5,524.7,742.2,524.2,742.9,523.8    L742.9,523.8z M735.9,530.3c1-1.2-0.8-2.9-2-1.5c-0.5,0.7-1,1.4-1.5,2.1c-0.9,1.6,1.4,2.6,2.1,1.4    C734.9,531.5,735.4,530.9,735.9,530.3L735.9,530.3z M731.3,538.6c0.6-1.5-1.8-2.4-2.4-0.8c-0.3,0.8-0.5,1.7-0.8,2.5    c-0.4,1.6,2,2.2,2.4,0.6C730.8,540.1,731,539.4,731.3,538.6L731.3,538.6z M729.8,547.9c0-1.5-2.5-1.7-2.5,0.1    c0,0.9,0.1,1.8,0.3,2.6c0.2,1.5,2.7,1.3,2.5-0.4C729.9,549.5,729.8,548.7,729.8,547.9L729.8,547.9z M732.2,556.9    c-0.9-1.5-3-0.2-2.2,1.2c0.4,0.8,0.9,1.5,1.4,2.3c1,1.3,3-0.1,2-1.4C733,558.3,732.6,557.6,732.2,556.9L732.2,556.9z M738.3,564.1    c-1.2-1-2.9,0.9-1.5,2c0.7,0.5,1.4,1,2.1,1.5c1.5,0.9,2.7-1.1,1.4-2.1C739.6,565.1,738.9,564.6,738.3,564.1L738.3,564.1z     M746.6,569c-1.6-0.7-2.5,1.7-1,2.3c0.8,0.3,1.5,0.7,2.3,1c1.5,0.6,2.4-1.7,0.9-2.3C748.1,569.7,747.4,569.3,746.6,569L746.6,569z     M765.3,573.6c0.8,0,1.6,0,2.4-0.1c1.5-0.2,2,2.3,0.2,2.5c-0.9,0.1-1.7,0.1-2.6,0.1C763.7,576.1,763.7,573.6,765.3,573.6    L765.3,573.6z M774.9,572.3c-1.5,0.4-1,2.8,0.7,2.4c0.8-0.2,1.7-0.5,2.5-0.8c1.6-0.6,0.7-2.9-0.8-2.3    C776.4,571.9,775.6,572.1,774.9,572.3L774.9,572.3z M783.7,568.6c-1.4,0.8-0.2,3,1.3,2.2c0.7-0.4,1.5-0.9,2.2-1.3    c1.3-0.7,0.2-3-1.4-2.1C785.1,567.7,784.4,568.2,783.7,568.6L783.7,568.6z M791.7,562.9c-1.2,1,0.3,3,1.6,1.9    c0.6-0.5,1.3-1.1,1.9-1.7c1.2-1-0.3-3-1.7-1.9C792.9,561.8,792.3,562.4,791.7,562.9L791.7,562.9z M798.8,556.1    c-1.1,1.1,0.6,2.9,1.8,1.7l1.7-1.8c1.1-1.4-0.9-2.8-1.8-1.7C799.9,555,799.4,555.6,798.8,556.1L798.8,556.1z M805.4,548.8    c-1.1,1.3,0.9,2.9,1.9,1.6l1.6-1.9c1.1-1.3-0.9-2.9-1.9-1.6L805.4,548.8L805.4,548.8z M811.8,541.1c-1,1.2,0.9,2.9,1.9,1.6    l1.6-1.9c1-1.3-0.9-2.9-1.9-1.6L811.8,541.1L811.8,541.1z M818.2,533.4c-1.1,1.3,0.9,2.9,1.9,1.6l1.6-1.9c1.1-1.3-0.9-2.8-1.9-1.6    L818.2,533.4L818.2,533.4z M824.9,526c-1.1,1.1,0.6,2.9,1.8,1.7l1.7-1.8c1.2-1.2-0.6-2.9-1.8-1.8L824.9,526L824.9,526z     M832.3,519.1c-1.3,1.1,0.3,3,1.6,1.9c0.6-0.5,1.3-1.1,1.9-1.5c1.4-1.1-0.4-3-1.5-2C833.6,518,832.9,518.5,832.3,519.1z" clip-rule="evenodd" class="color71aeec svgShape"/></g></svg>